Coordinates
version=1
nRows=23
nColumns=32
inDegrees=no

Units are S.I. units (second, meters, Newtons, ...)
If the header above contains a line with 'inDegrees', this indicates whether rotational values are in degrees (yes) or radians (no).

endheader
time	pelvis_tilt	pelvis_list	pelvis_rotation	pelvis_tx	pelvis_ty	pelvis_tz	hip_flexion_r	hip_adduction_r	hip_rotation_r	knee_angle_r	ankle_angle_r	subtalar_angle_r	mtp_angle_r	hip_flexion_l	hip_adduction_l	hip_rotation_l	knee_angle_l	ankle_angle_l	subtalar_angle_l	mtp_angle_l	lumbar_extension	lumbar_bending	lumbar_rotation	arm_flex_r	arm_add_r	arm_rot_r	elbow_flex_r	arm_flex_l	arm_add_l	arm_rot_l	elbow_flex_l
1.46	-0.0877475	-0.0524088	0.15312	0.85188	1.03676	-0.296598	0.0605227	-0.0112005	-0.185415	2.02635	-0.64337	-0.889501	0.054182	0.534076	-0.0734267	-0.615044	0.220907	-0.554091	0.202597	0.13935	-0.196937	-0.00210441	-0.178351	-0.408221	-0.432146	0.375531	1.31653	-0.680204	-0.392579	0.294423	0.676376
1.465	-0.0757241	-0.0455019	0.158049	0.850262	1.03547	-0.29746	0.0938331	-0.0233529	-0.173013	2.09319	-0.617147	-0.878595	0.054154	0.499086	-0.071133	-0.585427	0.249635	-0.512726	0.182086	0.139324	-0.213395	-0.00556782	-0.197656	-0.421807	-0.42575	0.373651	1.24682	-0.618977	-0.403843	0.316178	0.660236
1.47	-0.0643238	-0.0378928	0.162912	0.848703	1.03383	-0.298446	0.129906	-0.0375235	-0.158182	2.15626	-0.590477	-0.865303	0.054126	0.464512	-0.0675047	-0.548926	0.282316	-0.453686	0.156262	0.139297	-0.229075	-0.0094115	-0.217908	-0.43717	-0.421792	0.37265	1.18334	-0.558396	-0.412535	0.335691	0.647611
1.475	-0.0539351	-0.0300648	0.168142	0.847202	1.03186	-0.299621	0.169217	-0.0531473	-0.141202	2.21488	-0.56288	-0.848902	0.054098	0.430774	-0.0624175	-0.506354	0.318151	-0.378624	0.1248	0.13927	-0.243483	-0.0130066	-0.23957	-0.454667	-0.420569	0.372693	1.12708	-0.499772	-0.418144	0.351673	0.639977
1.48	-0.0448471	-0.0225532	0.174005	0.845769	1.02957	-0.30103	0.212104	-0.0695142	-0.122424	2.26825	-0.534123	-0.828798	0.0540699	0.398074	-0.0560591	-0.459075	0.355979	-0.291413	0.0876803	0.139244	-0.256177	-0.0157137	-0.262881	-0.474557	-0.422289	0.373802	1.07879	-0.444388	-0.420238	0.362888	0.638674
1.485	-0.0372524	-0.0158716	0.180586	0.84442	1.02705	-0.302696	0.258754	-0.085853	-0.102309	2.31549	-0.50426	-0.804642	0.0540418	0.366398	-0.0488868	-0.408785	0.39435	-0.197636	0.0453612	0.139217	-0.266784	-0.0169836	-0.287814	-0.497013	-0.427009	0.375827	1.0389	-0.393317	-0.418543	0.368357	0.644723
1.49	-0.0312738	-0.0104798	0.187781	0.843183	1.02438	-0.304606	0.309214	-0.101368	-0.0814837	2.35569	-0.473634	-0.776463	0.0540137	0.33555	-0.0416089	-0.357354	0.431689	-0.103584	-0.000981538	0.13919	-0.27498	-0.0164083	-0.314057	-0.522135	-0.434582	0.378434	1.00751	-0.347251	-0.413008	0.367586	0.658653
1.495	-0.0269994	-0.00679846	0.195304	0.842092	1.02168	-0.306712	0.363427	-0.115214	-0.0607683	2.388	-0.442831	-0.74481	0.0539856	0.305207	-0.0351788	-0.30677	0.466467	-0.0151268	-0.0493043	0.139163	-0.280454	-0.0137179	-0.340984	-0.550006	-0.44463	0.381107	0.984444	-0.306381	-0.403847	0.360724	0.680424
1.5	-0.024518	-0.00522035	0.202694	0.84119	1.01904	-0.308923	0.421266	-0.126477	-0.0411482	2.41171	-0.412631	-0.710852	0.0539575	0.274972	-0.0307217	-0.259065	0.497326	0.0630969	-0.0968148	0.139136	-0.28288	-0.00876869	-0.367666	-0.580716	-0.456548	0.383181	0.969309	-0.270388	-0.391524	0.348602	0.709438
1.505	-0.0239299	-0.00608274	0.209333	0.840524	1.01655	-0.311109	0.482545	-0.134206	-0.0236793	2.4263	-0.383936	-0.676404	0.0539293	0.244434	-0.0293794	-0.216212	0.52315	0.127976	-0.140357	0.139109	-0.281943	-0.0015505	-0.392939	-0.614369	-0.469553	0.383926	0.961551	-0.238542	-0.376712	0.332597	0.744669
1.51	-0.0253305	-0.00961485	0.214485	0.840136	1.01427	-0.313117	0.546993	-0.137495	-0.00935377	2.43152	-0.357686	-0.643823	0.0539012	0.213203	-0.0321071	-0.180015	0.543101	0.177809	-0.176969	0.139082	-0.27739	0.00779964	-0.41553	-0.651054	-0.48278	0.382678	0.960536	-0.209899	-0.3602	0.314359	0.784864
1.515	-0.0287668	-0.0158807	0.217349	0.840063	1.01224	-0.314785	0.614201	-0.135583	0.00104412	2.42742	-0.334779	-0.615779	0.053873	0.180905	-0.0394816	-0.152024	0.556592	0.211953	-0.204334	0.139055	-0.269113	0.0189961	-0.434216	-0.690802	-0.495397	0.378965	0.965612	-0.183528	-0.342782	0.295491	0.828765
1.52	-0.0341862	-0.0247198	0.217131	0.84033	1.01047	-0.315967	0.683541	-0.127972	0.00707465	2.41425	-0.315992	-0.59492	0.0538448	0.14714	-0.0515529	-0.133493	0.563228	0.230389	-0.221017	0.139028	-0.257225	0.0316087	-0.447974	-0.733548	-0.506723	0.372604	0.976156	-0.158696	-0.325169	0.277291	0.875278
1.525	-0.0414099	-0.0357158	0.213142	0.840953	1.00897	-0.316552	0.754133	-0.114533	0.00872977	2.39248	-0.301927	-0.583534	0.0538165	0.11146	-0.067774	-0.125372	0.562745	0.233315	-0.226514	0.139001	-0.242106	0.0450743	-0.456129	-0.7791	-0.516297	0.363728	0.991605	-0.134981	-0.307924	0.260608	0.923571
1.53	-0.0501341	-0.0482062	0.204916	0.841929	1.00776	-0.316486	0.824857	-0.0955856	0.00643466	2.3627	-0.292969	-0.583252	0.0537882	0.0734323	-0.0870301	-0.128251	0.555002	0.22088	-0.221235	0.138974	-0.224369	0.0587325	-0.458443	-0.827134	-0.523905	0.352757	1.01145	-0.112286	-0.291447	0.245834	0.973066
1.535	-0.0599806	-0.0613424	0.192314	0.843229	1.00683	-0.315775	0.894441	-0.0719232	0.000954466	2.32555	-0.289248	-0.594867	0.05376	0.0327688	-0.107775	-0.142228	0.540041	0.193092	-0.206478	0.138947	-0.204761	0.0718986	-0.455153	-0.877205	-0.529553	0.340308	1.03523	-0.0907733	-0.275989	0.233018	1.02337
1.54	-0.0705767	-0.0742006	0.175592	0.844804	1.0062	-0.314487	0.961584	-0.0447757	-0.0067594	2.28166	-0.290582	-0.618251	0.0537317	-0.0104892	-0.128245	-0.166715	0.518203	0.149925	-0.184382	0.138919	-0.184035	0.0839506	-0.446938	-0.928767	-0.533405	0.327076	1.06249	-0.0707564	-0.261691	0.222033	1.07415
1.545	-0.0816249	-0.0859056	0.15541	0.84658	1.00583	-0.312758	1.02509	-0.0156929	-0.0157307	2.23159	-0.296416	-0.652361	0.0537033	-0.0558267	-0.146712	-0.200269	0.490249	0.0915828	-0.157803	0.138892	-0.162837	0.0943977	-0.434838	-0.981183	-0.535702	0.313731	1.09275	-0.0525943	-0.248626	0.212734	1.12504
1.55	-0.0929344	-0.0957387	0.132757	0.848455	1.00571	-0.310766	1.08394	0.0136355	-0.0250889	2.17579	-0.305803	-0.695321	0.053675	-0.102217	-0.161731	-0.24055	0.457445	0.0188472	-0.130071	0.138865	-0.141646	0.102922	-0.42011	-1.03371	-0.536688	0.300861	1.12543	-0.0366003	-0.236836	0.205085	1.17552
1.555	-0.104397	-0.10321	0.108827	0.850318	1.00579	-0.308706	1.13732	0.0415892	-0.0341483	2.11456	-0.317453	-0.74456	0.0536466	-0.148223	-0.17234	-0.284439	0.421582	-0.0666008	-0.104622	0.138837	-0.120803	0.109388	-0.404056	-1.0855	-0.536548	0.288936	1.15981	-0.0229804	-0.226366	0.199218	1.2249
1.56	-0.115924	-0.108075	0.0848654	0.852056	1.00606	-0.306758	1.18451	0.0668002	-0.0424264	2.04804	-0.329855	-0.796962	0.0536183	-0.192206	-0.178156	-0.328304	0.384899	-0.161994	-0.0845804	0.13881	-0.100597	0.113811	-0.387852	-1.13554	-0.535353	0.278313	1.195	-0.0117988	-0.217265	0.195436	1.27229
1.565	-0.12738	-0.110298	0.0620326	0.853566	1.00652	-0.305069	1.22488	0.0882668	-0.0496054	1.97624	-0.341461	-0.849058	0.0535898	-0.232579	-0.179351	-0.36838	0.34995	-0.263507	-0.0723315	0.138782	-0.081354	0.116286	-0.372427	-1.18271	-0.533045	0.269267	1.22996	-0.00297288	-0.209592	0.194155	1.31666
1.57	-0.138545	-0.109967	0.0412971	0.854763	1.00716	-0.303736	1.25785	0.105379	-0.0554569	1.89905	-0.350917	-0.897252	0.0535614	-0.268015	-0.176511	-0.401189	0.31941	-0.366531	-0.0691941	0.138755	-0.0634925	0.116898	-0.358402	-1.22578	-0.529444	0.262018	1.26351	0.00369976	-0.203394	0.195801	1.35692
